<?xml version="1.0" encoding="utf-8"?>
<!-- Generator: Adobe Illustrator 27.2.0, SVG Export Plug-In . SVG Version: 6.00 Build 0)  -->
<svg version="1.1" id="Calque_1" xmlns="http://www.w3.org/2000/svg" xmlns:xlink="http://www.w3.org/1999/xlink" x="0px" y="0px"
	 viewBox="0 0 200 160" style="enable-background:new 0 0 200 160;" xml:space="preserve">
<style type="text/css">
	.st0{fill:#E4ECEF;}
	.st1{fill:#FFD385;}
	.st2{fill:#FF7757;}
	.st3{fill:#FFFFFF;stroke:#1F253A;stroke-width:2.5;stroke-miterlimit:10;}
	.st4{fill:#F0F5F7;}
	.st5{fill:#C3D8E5;}
	.st6{fill:none;stroke:#1F253A;stroke-width:2.0525;stroke-linecap:round;stroke-miterlimit:10;}
	.st7{fill:none;stroke:#9DA7BA;stroke-width:1.3945;stroke-linecap:round;stroke-miterlimit:10;}
</style>
<g>
	<g>
		<rect x="74.4" y="28" class="st0" width="84" height="107.9"/>
		<g id="vegetation_12_">
			<path class="st1" d="M75.4,77.2c0,0-14.9,3.6-22.2-0.7S39.4,60.1,37.9,63.3c-1.4,3.2-0.7,16,8.7,20.4
				C55.9,88,75.4,77.2,75.4,77.2"/>
		</g>
		<g>
			<path class="st2" d="M75.7,74.8c0,0-9.1-5.1-10.6-18.7s-4.2-34.6-7.9-38.6s-10.7,6-12.4,14.7s1.3,17.1,7.9,26.2
				S75.7,74.8,75.7,74.8"/>
		</g>
	</g>
	<polyline class="st3" points="138.5,121.2 138.5,145 54.3,145 54.3,40.2 138.5,40.2 138.5,107.1 	"/>
	<g>
		<g>
			<polyline class="st4" points="92.2,72.5 65.1,72.5 65.1,51.1 92.3,51.1 92.2,72.5 65.1,72.5 65.1,51.1 92.3,51.1 			"/>
			<path class="st5" d="M84.8,62.3c-0.8,0-8.1,4.5-8.1,4.5s-3.9-2.6-4.4-2.5s-7.1,8.2-7.1,8.2h14.5l0,0h12.8
				C92.4,72.5,85.2,62.3,84.8,62.3z"/>
			
				<ellipse transform="matrix(0.9995 -3.127879e-02 3.127879e-02 0.9995 -1.7478 2.2737)" class="st1" cx="71.8" cy="57" rx="1.6" ry="1.5"/>
		</g>
		<line class="st6" x1="65.9" y1="78.7" x2="92.1" y2="78.7"/>
		<line class="st6" x1="100.2" y1="78.7" x2="126.4" y2="78.7"/>
		<line class="st7" x1="65.9" y1="83.9" x2="92.1" y2="84"/>
		<line class="st7" x1="65.9" y1="88.9" x2="81.1" y2="88.9"/>
		<g>
			<polyline class="st4" points="126.9,72.5 99.7,72.5 99.7,51.1 126.9,51.1 126.9,72.5 99.7,72.5 99.7,51.1 126.9,51.1 			"/>
			<path class="st5" d="M119.4,62.3c-0.8,0-8.1,4.5-8.1,4.5s-3.9-2.6-4.4-2.5s-7.1,8.2-7.1,8.2h14.5l0,0h12.8
				C127.1,72.5,119.8,62.3,119.4,62.3z"/>
			
				<ellipse transform="matrix(0.9995 -3.127879e-02 3.127879e-02 0.9995 -1.7307 3.359)" class="st1" cx="106.5" cy="57" rx="1.6" ry="1.5"/>
		</g>
		<line class="st7" x1="100.5" y1="83.9" x2="126.7" y2="84"/>
		<line class="st7" x1="100.5" y1="88.9" x2="126.7" y2="88.9"/>
		<g>
			<polyline class="st4" points="92.2,118.1 65.1,118.1 65.1,96.7 92.3,96.7 92.2,118.1 65.1,118.1 65.1,96.7 92.3,96.7 			"/>
			<path class="st5" d="M84.8,107.9c-0.8,0-8.1,4.5-8.1,4.5s-3.9-2.6-4.4-2.5s-7.1,8.2-7.1,8.2h14.5l0,0h12.8
				C92.4,118.1,85.2,107.9,84.8,107.9z"/>
			
				<ellipse transform="matrix(0.9995 -3.127879e-02 3.127879e-02 0.9995 -3.1741 2.296)" class="st1" cx="71.8" cy="102.6" rx="1.6" ry="1.5"/>
		</g>
		<line class="st6" x1="65.9" y1="124.3" x2="92.1" y2="124.3"/>
		<line class="st7" x1="65.9" y1="129.5" x2="92.1" y2="129.5"/>
		<line class="st7" x1="65.9" y1="134.5" x2="75.1" y2="134.5"/>
		<g>
			<polyline class="st4" points="126.9,118.1 99.7,118.1 99.7,96.7 126.9,96.7 126.9,118.1 99.7,118.1 99.7,96.7 126.9,96.7 			"/>
			<path class="st5" d="M119.4,107.9c-0.8,0-8.1,4.5-8.1,4.5s-3.9-2.6-4.4-2.5s-7.1,8.2-7.1,8.2h14.5l0,0h12.8
				C127.1,118.1,119.8,107.9,119.4,107.9z"/>
			
				<ellipse transform="matrix(0.9995 -3.127879e-02 3.127879e-02 0.9995 -3.157 3.3814)" class="st1" cx="106.5" cy="102.6" rx="1.6" ry="1.5"/>
		</g>
		<line class="st6" x1="100.5" y1="124.3" x2="126.7" y2="124.3"/>
		<line class="st7" x1="100.5" y1="129.5" x2="126.7" y2="129.5"/>
		<line class="st7" x1="100.5" y1="134.5" x2="119.7" y2="134.5"/>
	</g>
	<polygon class="st3" points="161.5,134.1 156.6,143.2 151.7,134.1 151.7,53.4 161.5,53.4 	"/>
	<path class="st3" d="M153.6,40.2h6c1,0,1.9,0.9,1.9,1.9v5.3h-9.8v-5.3C151.7,41.1,152.5,40.2,153.6,40.2z"/>
</g>
</svg>
