<?xml version="1.0" encoding="utf-8"?>
<!-- Generator: Adobe Illustrator 27.2.0, SVG Export Plug-In . SVG Version: 6.00 Build 0)  -->
<svg version="1.1" id="Calque_1" xmlns="http://www.w3.org/2000/svg" xmlns:xlink="http://www.w3.org/1999/xlink" x="0px" y="0px"
	 viewBox="0 0 200 160" style="enable-background:new 0 0 200 160;" xml:space="preserve">
<style type="text/css">
	.st0{fill:#4B7CB2;}
	.st1{fill:#FFD385;}
	.st2{fill:#E4ECEF;}
	.st3{fill:#1F253A;}
	.st4{fill:#FFFFFF;}
	.st5{fill:#FF7757;}
</style>
<g id="boutique_2_">
	<g>
		<g id="vegetation_11_">
			<g>
				<path class="st0" d="M66.8,117.3c0,0-16.1,4.9-24.3,0.7s-16.2-17-17.6-13.5s0.3,17.5,10.8,21.7S66.8,117.3,66.8,117.3"/>
			</g>
		</g>
		<g>
			<g>
				<path class="st1" d="M67,114.7c0,0-10.3-5-12.8-19.8S47.3,57.4,43,53.2C38.7,49,31.6,60.4,30.4,70c-1.3,9.6,2.6,18.6,10.4,28.1
					S67,114.7,67,114.7"/>
			</g>
		</g>
		<g>
			<path class="st1" d="M75.1,117.4c-9.3-0.1-21-7.7-29-18.9C37.7,86.8,35,73.6,38.6,62.2l1.8,0.6c-3.5,10.9-0.8,23.5,7.2,34.7
				c7.6,10.6,18.9,18,27.5,18.2V117.4z"/>
		</g>
	</g>
	<g>
		<polygon class="st2" points="164.6,86.4 77.3,86.4 66.2,26.6 175.7,35.6 		"/>
	</g>
	<g>
		<path class="st3" d="M149.5,111.5H69.8l-2.2-13.8L52.7,29.3l-19.2-0.4c-0.7,0-1.2-0.6-1.2-1.3s0.6-1.3,1.3-1.2l21.2,0.5L70,97.2
			l1.9,11.7h77.6c0.7,0,1.3,0.6,1.3,1.3S150.2,111.5,149.5,111.5z"/>
	</g>
	<g>
		<path class="st3" d="M149.6,98.8H67.8L55,39.5l9.9,0.7l-0.2,2.5l-6.5-0.5l11.7,54h79.8c1.2,0,2.3-0.9,2.5-2.1l7.3-42.2
			c0.1-0.6,0-1.1-0.4-1.6s-0.9-0.7-1.4-0.8l-79.8-5.9l0.2-2.5l79.8,5.9c1.3,0.1,2.4,0.7,3.2,1.7s1.1,2.3,0.9,3.5l-7.3,42.2
			C154.1,97,152,98.8,149.6,98.8z"/>
	</g>
	<g>
		<path class="st3" d="M77.5,133.2c-6.6,0-11.9-5.3-11.9-11.9s5.3-11.9,11.9-11.9s11.9,5.3,11.9,11.9S84,133.2,77.5,133.2z
			 M77.5,112c-5.2,0-9.4,4.2-9.4,9.4s4.2,9.4,9.4,9.4s9.4-4.2,9.4-9.4S82.6,112,77.5,112z"/>
	</g>
	<g>
		<path class="st3" d="M141.5,133.2c-6.6,0-11.9-5.3-11.9-11.9s5.3-11.9,11.9-11.9s11.9,5.3,11.9,11.9S148,133.2,141.5,133.2z
			 M141.5,112c-5.2,0-9.4,4.2-9.4,9.4s4.2,9.4,9.4,9.4s9.4-4.2,9.4-9.4S146.7,112,141.5,112z"/>
	</g>
	<g>
		<rect x="87.2" y="80.3" class="st3" width="67.5" height="2.5"/>
	</g>
	<g>
		
			<rect x="132.2" y="42.9" transform="matrix(4.066936e-02 -0.9992 0.9992 4.066936e-02 61.5476 197.2493)" class="st3" width="2.5" height="47.4"/>
	</g>
	<g>
		<circle class="st4" cx="154.7" cy="54.2" r="16.9"/>
	</g>
	<g>
		<circle class="st5" cx="154.7" cy="54.2" r="16.9"/>
	</g>
	<g>
		<path class="st3" d="M154.7,72.4c-10,0-18.2-8.1-18.2-18.2S144.6,36,154.7,36s18.2,8.1,18.2,18.2S164.7,72.4,154.7,72.4z
			 M154.7,38.6c-8.6,0-15.7,7-15.7,15.7S146,70,154.7,70s15.7-7,15.7-15.7S163.3,38.6,154.7,38.6z"/>
	</g>
	<g>
		<rect x="153.5" y="47.4" class="st4" width="2.4" height="13.7"/>
	</g>
	<g>
		<rect x="147.8" y="53" class="st4" width="13.7" height="2.4"/>
	</g>
</g>
</svg>
