<?xml version="1.0" encoding="utf-8"?>
<!-- Generator: Adobe Illustrator 27.9.0, SVG Export Plug-In . SVG Version: 6.00 Build 0)  -->
<svg version="1.1" id="Calque_1" xmlns="http://www.w3.org/2000/svg" xmlns:xlink="http://www.w3.org/1999/xlink" x="0px" y="0px"
	 viewBox="0 0 751.9 601.5" style="enable-background:new 0 0 751.9 601.5;" xml:space="preserve">
<style type="text/css">
	.st0{fill-rule:evenodd;clip-rule:evenodd;fill:#E3E5E9;}
	.st1{fill-rule:evenodd;clip-rule:evenodd;fill:#E6E6E6;}
	.st2{fill-rule:evenodd;clip-rule:evenodd;fill:#FF7680;}
	.st3{fill-rule:evenodd;clip-rule:evenodd;fill:#9194FF;}
	.st4{fill-rule:evenodd;clip-rule:evenodd;fill:#FFCD69;}
	.st5{opacity:0.85;}
	.st6{fill:#FFCD69;}
	.st7{fill:#7961F5;}
	.st8{fill:#FFFFFF;}
	.st9{fill:#DFE2E5;}
	.st10{fill:none;stroke:#000000;stroke-width:1.4;stroke-linecap:round;stroke-miterlimit:10;}
	.st11{fill:#FF7680;}
	.st12{fill:#9194FF;}
	.st13{fill:none;stroke:#FFFFFF;stroke-width:1.4;stroke-linecap:round;stroke-miterlimit:10;}
	.st14{fill:none;stroke:#FFFFFF;stroke-width:1.4;stroke-miterlimit:10;}
	.st15{fill:#F5F6F8;}
	.st16{fill:#E3E5E9;}
	.st17{fill:none;stroke:#445268;stroke-width:3.1791;stroke-linecap:round;stroke-linejoin:round;stroke-miterlimit:10;}
	.st18{fill:none;stroke:#E3E5E9;stroke-width:1.5896;stroke-linecap:round;stroke-linejoin:round;stroke-miterlimit:10;}
	.st19{fill:none;stroke:#FFFFFF;stroke-width:1.5896;stroke-linecap:round;stroke-miterlimit:10;}
	.st20{fill:none;stroke:#445268;stroke-width:3.1367;stroke-linecap:round;stroke-linejoin:round;stroke-miterlimit:10;}
	.st21{fill:none;stroke:#445268;stroke-width:1.5896;stroke-linecap:round;stroke-linejoin:round;stroke-miterlimit:10;}
	.st22{fill:#445268;}
	.st23{fill:#FF7757;}
	.st24{fill:#FFD385;}
	.st25{fill:#D1D5E0;}
	.st26{fill:#E4ECEF;stroke:#000000;stroke-miterlimit:10;}
	.st27{fill:#FFFFFF;stroke:#000000;stroke-miterlimit:10;}
	.st28{fill:none;stroke:#000000;stroke-width:1.5896;stroke-linejoin:round;stroke-miterlimit:10;}
	.st29{fill:#FFFFFF;stroke:#000000;stroke-width:1.5896;stroke-linejoin:round;stroke-miterlimit:10;}
	.st30{fill:#425975;}
	.st31{fill:#FFFFFF;stroke:#000000;stroke-width:1.5896;stroke-miterlimit:10;}
	.st32{fill:none;stroke:#000000;stroke-width:1.5896;stroke-miterlimit:10;}
	.st33{fill:#1F253A;stroke:#000000;stroke-miterlimit:10;}
	.st34{fill:#AF6A5A;stroke:#000000;stroke-width:1.5896;stroke-miterlimit:10;}
	.st35{stroke:#000000;stroke-miterlimit:10;}
	.st36{fill:#F3FAFF;stroke:#000000;stroke-width:1.5896;stroke-linejoin:round;stroke-miterlimit:10;}
	.st37{fill:#F3FAFF;stroke:#000000;stroke-width:1.5896;stroke-miterlimit:10;}
	.st38{fill:#FFFFFF;stroke:#1F253A;stroke-width:1.5896;stroke-miterlimit:10;}
	.st39{fill:#3D40FF;}
	.st40{fill:none;stroke:#1F253A;stroke-width:1.5896;stroke-miterlimit:10;}
</style>
<ellipse class="st0" cx="386.1" cy="574.6" rx="351.4" ry="18.8"/>
<g>
	<g>
		<circle class="st1" cx="424.6" cy="13.7" r="4.1"/>
		<circle class="st1" cx="445.3" cy="13.7" r="4.1"/>
		<circle class="st1" cx="466" cy="13.7" r="4.1"/>
		<circle class="st2" cx="486.8" cy="13.7" r="4.1"/>
		<circle class="st1" cx="466" cy="34.8" r="4.1"/>
		<circle class="st1" cx="486.8" cy="34.8" r="4.1"/>
		<circle class="st1" cx="403.8" cy="34.8" r="4.1"/>
		<circle class="st3" cx="424.6" cy="34.8" r="4.1"/>
		<circle class="st1" cx="445.3" cy="34.8" r="4.1"/>
		<circle class="st1" cx="507.5" cy="34.8" r="4.1"/>
	</g>
	<g>
		<circle class="st1" cx="528.2" cy="13.7" r="4.1"/>
		<circle class="st1" cx="507.5" cy="13.7" r="4.1"/>
		<circle class="st1" cx="548.9" cy="13.7" r="4.1"/>
		<circle class="st1" cx="569.7" cy="13.7" r="4.1"/>
		<circle class="st1" cx="590.5" cy="13.7" r="4.1"/>
		<circle class="st1" cx="611.2" cy="13.7" r="4.1"/>
		<circle class="st1" cx="631.9" cy="13.7" r="4.1"/>
		<circle class="st1" cx="528.2" cy="34.8" r="4.1"/>
		<circle class="st1" cx="548.9" cy="34.8" r="4.1"/>
		<circle class="st1" cx="569.7" cy="34.8" r="4.1"/>
		<circle class="st1" cx="590.5" cy="34.8" r="4.1"/>
		<circle class="st1" cx="611.2" cy="34.8" r="4.1"/>
		<circle class="st1" cx="631.9" cy="34.8" r="4.1"/>
		<circle class="st1" cx="652.6" cy="34.8" r="4.1"/>
		<circle class="st1" cx="652.6" cy="55.7" r="4.1"/>
		<circle class="st1" cx="673.3" cy="55.7" r="4.1"/>
		<circle class="st1" cx="631.9" cy="76.7" r="4.1"/>
		<circle class="st1" cx="652.6" cy="76.7" r="4.1"/>
		<circle class="st1" cx="673.3" cy="76.7" r="4.1"/>
		<circle class="st1" cx="694" cy="76.7" r="4.1"/>
		<circle class="st1" cx="631.9" cy="97.7" r="4.1"/>
		<circle class="st1" cx="652.6" cy="97.7" r="4.1"/>
		<circle class="st4" cx="673.3" cy="97.7" r="4.1"/>
		<circle class="st1" cx="694" cy="97.7" r="4.1"/>
	</g>
	<g>
		<circle class="st1" cx="652.6" cy="118.7" r="4.1"/>
		<circle class="st1" cx="673.3" cy="118.7" r="4.1"/>
		<circle class="st1" cx="694" cy="118.7" r="4.1"/>
		<circle class="st1" cx="652.6" cy="139.7" r="4.1"/>
		<circle class="st1" cx="673.3" cy="139.7" r="4.1"/>
		<circle class="st1" cx="694" cy="139.7" r="4.1"/>
	</g>
	<g>
		<path class="st1" d="M319.9,177.9c0.3-0.1,0.7-0.2,1.1-0.2c2.2,0,4.1,1.8,4.1,4.1c0,2.2-1.8,4.1-4.1,4.1c-0.4,0-0.8-0.1-1.2-0.2
			L319.9,177.9z"/>
	</g>
	<g>
		<circle class="st1" cx="652.6" cy="160.9" r="4.1"/>
		<circle class="st1" cx="673.3" cy="160.9" r="4.1"/>
	</g>
	<circle class="st2" cx="694" cy="160.9" r="4.1"/>
	<g>
		<circle class="st1" cx="652.6" cy="181.8" r="4.1"/>
		<circle class="st1" cx="673.3" cy="181.8" r="4.1"/>
		<circle class="st1" cx="694" cy="181.8" r="4.1"/>
	</g>
	<g>
		<circle class="st1" cx="652.6" cy="202.9" r="4.1"/>
		<circle class="st1" cx="673.3" cy="202.9" r="4.1"/>
		<circle class="st1" cx="694" cy="202.9" r="4.1"/>
		<circle class="st1" cx="652.6" cy="223.8" r="4.1"/>
		<circle class="st1" cx="673.3" cy="223.8" r="4.1"/>
		<circle class="st1" cx="694" cy="223.8" r="4.1"/>
	</g>
	<g>
		<circle class="st1" cx="652.6" cy="244.9" r="4.1"/>
		<circle class="st1" cx="673.3" cy="244.9" r="4.1"/>
		<circle class="st1" cx="694" cy="244.9" r="4.1"/>
		<circle class="st1" cx="652.6" cy="265.8" r="4.1"/>
		<circle class="st1" cx="673.3" cy="265.8" r="4.1"/>
		<circle class="st1" cx="694" cy="265.8" r="4.1"/>
	</g>
	<g>
		<circle class="st1" cx="652.6" cy="286.9" r="4.1"/>
		<circle class="st1" cx="673.3" cy="286.9" r="4.1"/>
		<circle class="st1" cx="694" cy="286.9" r="4.1"/>
		<circle class="st1" cx="652.6" cy="307.8" r="4.1"/>
		<circle class="st1" cx="673.3" cy="307.8" r="4.1"/>
	</g>
	<circle class="st3" cx="673.2" cy="160.8" r="4.5"/>
</g>
<g>
	<g>
		<circle class="st1" cx="340.9" cy="13.7" r="4.1"/>
		<circle class="st1" cx="361.6" cy="13.7" r="4.1"/>
		<circle class="st1" cx="320.2" cy="13.7" r="4.1"/>
		<circle class="st1" cx="299.4" cy="13.7" r="4.1"/>
		<circle class="st1" cx="278.6" cy="13.7" r="4.1"/>
		<circle class="st1" cx="299.4" cy="34.8" r="4.1"/>
		<circle class="st1" cx="278.6" cy="34.8" r="4.1"/>
		<circle class="st1" cx="361.6" cy="34.8" r="4.1"/>
		<circle class="st1" cx="381.8" cy="34.8" r="4.1"/>
		<circle class="st1" cx="403.8" cy="13.7" r="4.1"/>
		<circle class="st1" cx="381.8" cy="13.7" r="4.1"/>
		<circle class="st1" cx="340.9" cy="34.8" r="4.1"/>
		<circle class="st1" cx="320.2" cy="34.8" r="4.1"/>
		<circle class="st1" cx="257.9" cy="34.8" r="4.1"/>
	</g>
	<g>
		<circle class="st1" cx="237.2" cy="13.7" r="4.1"/>
		<circle class="st1" cx="257.9" cy="13.7" r="4.1"/>
		<circle class="st1" cx="216.5" cy="13.7" r="4.1"/>
		<circle class="st1" cx="195.8" cy="13.7" r="4.1"/>
		<circle class="st1" cx="175" cy="13.7" r="4.1"/>
		<circle class="st1" cx="154.3" cy="13.7" r="4.1"/>
		<circle class="st1" cx="133.5" cy="13.7" r="4.1"/>
		<circle class="st1" cx="237.2" cy="34.8" r="4.1"/>
		<circle class="st1" cx="216.5" cy="34.8" r="4.1"/>
		<circle class="st1" cx="195.8" cy="34.8" r="4.1"/>
		<circle class="st1" cx="175" cy="34.8" r="4.1"/>
		<circle class="st1" cx="154.3" cy="34.8" r="4.1"/>
		<circle class="st1" cx="133.5" cy="34.8" r="4.1"/>
		<circle class="st1" cx="112.8" cy="34.8" r="4.1"/>
		<circle class="st1" cx="112.8" cy="55.7" r="4.1"/>
		<circle class="st1" cx="92.1" cy="55.7" r="4.1"/>
		<circle class="st1" cx="112.8" cy="76.7" r="4.1"/>
		<circle class="st1" cx="92.1" cy="76.7" r="4.1"/>
		<circle class="st1" cx="71.4" cy="76.7" r="4.1"/>
		<circle class="st1" cx="112.8" cy="97.7" r="4.1"/>
		<circle class="st4" cx="92.1" cy="97.7" r="4.1"/>
		<circle class="st1" cx="71.4" cy="97.7" r="4.1"/>
	</g>
	<g>
		<circle class="st1" cx="112.8" cy="118.7" r="4.1"/>
		<circle class="st1" cx="92.1" cy="118.7" r="4.1"/>
		<circle class="st1" cx="71.4" cy="118.7" r="4.1"/>
		<circle class="st1" cx="112.8" cy="139.7" r="4.1"/>
		<circle class="st1" cx="92.1" cy="139.7" r="4.1"/>
		<circle class="st1" cx="71.4" cy="139.7" r="4.1"/>
	</g>
	<g>
		<path class="st1" d="M445.6,177.9c-0.3-0.1-0.7-0.2-1.1-0.2c-2.2,0-4.1,1.8-4.1,4.1c0,2.2,1.8,4.1,4.1,4.1c0.4,0,0.8-0.1,1.2-0.2
			L445.6,177.9z"/>
	</g>
	<g>
		<circle class="st1" cx="112.8" cy="160.9" r="4.1"/>
		<circle class="st1" cx="92.1" cy="160.9" r="4.1"/>
	</g>
	<circle class="st2" cx="71.4" cy="160.9" r="4.1"/>
	<g>
		<circle class="st1" cx="112.8" cy="181.8" r="4.1"/>
		<circle class="st1" cx="92.1" cy="181.8" r="4.1"/>
		<circle class="st1" cx="71.4" cy="181.8" r="4.1"/>
	</g>
	<g>
		<circle class="st1" cx="112.8" cy="202.9" r="4.1"/>
		<circle class="st1" cx="92.1" cy="202.9" r="4.1"/>
		<circle class="st1" cx="71.4" cy="202.9" r="4.1"/>
		<circle class="st1" cx="112.8" cy="223.8" r="4.1"/>
		<circle class="st1" cx="92.1" cy="223.8" r="4.1"/>
		<circle class="st1" cx="71.4" cy="223.8" r="4.1"/>
	</g>
	<g>
		<circle class="st1" cx="112.8" cy="244.9" r="4.1"/>
		<circle class="st1" cx="92.1" cy="244.9" r="4.1"/>
		<circle class="st1" cx="71.4" cy="244.9" r="4.1"/>
		<circle class="st1" cx="112.8" cy="265.8" r="4.1"/>
		<circle class="st1" cx="92.1" cy="265.8" r="4.1"/>
		<circle class="st1" cx="71.4" cy="265.8" r="4.1"/>
	</g>
	<g>
		<circle class="st1" cx="112.8" cy="286.9" r="4.1"/>
		<circle class="st1" cx="92.1" cy="286.9" r="4.1"/>
		<circle class="st1" cx="71.4" cy="286.9" r="4.1"/>
		<circle class="st1" cx="112.8" cy="307.8" r="4.1"/>
		<circle class="st1" cx="92.1" cy="307.8" r="4.1"/>
	</g>
	<circle class="st3" cx="92.2" cy="160.8" r="4.5"/>
</g>
<g class="st5">
	<path class="st6" d="M137.3,430.8c-5.3-2.4-10.1-4.6-14.3-6.5c-19.4-8.6-29.7-13.3-40.1-26.2c-5.6-0.7-37.1-5.2-44.9-18.9
		c-8.6-15.1,2.8-33.4,7.8-36.3c5-3,2.4,20,8.2,32.9c5,11.2,23.7,19.8,28.6,21.9c-1.6-2.1-3.3-4.3-4.9-6.8
		c-3.8-5.7-5.9-13.7-6.1-23.1c-1.8-9.3-4.6-28.7-0.7-42.1c5.2-18.2,13.3-30.8,26.5-37.6s33.8-7.8,32.2,1.3
		c-1.6,9.1-26.6,34.3-43,50.3c-10.2,9.9-13,20.3-13.8,26.8c0,0.3,0,0.6,0,0.9c0.2,9.3,2.3,17.1,5.9,22.7
		c11.6,17.4,21.4,22.4,41.4,31.4c-0.8-0.6-1.5-1.1-2.2-1.6c-2.5-2-4.6-5.7-5-7.8l-0.1-0.3c-0.1-0.3-0.1-0.7-0.2-1
		c-2-5.4-4.7-14.3-4.5-23.3c0.4-14.4,14.1-46.1,23.6-50.3c5.1-2.2,4.1,18.2-2.1,31.8c-6.1,13.5-11.1,14.3-14.1,25
		c-1.9,6.9-2,13-1.6,17c0,0.2,0.1,0.3,0.1,0.5l0.1,0.3c0.3,1.6,2.1,5,4.6,7c2.5,2,7.2,5.1,7.7,5.4c3.5,1.6,7.4,3.3,11.6,5.2
		c17.1,7.9,27.7,18.4,33.5,25.7c6.3,8,8.5,14,8.6,14.3l-1.1,0.4c0-0.1-2.3-6.1-8.5-14C164.5,448.9,154.2,438.6,137.3,430.8z"/>
</g>
<path class="st7" d="M53.2,165c-0.4-2.9,29.1-12.4,49.8-6.7c20.7,5.6,38.6,21.1,38.6,21.1l0.1,1c-2.2,0-23.6,6.1-53.1,0.9
	S53.6,167.9,53.2,165z"/>
<path d="M50.6,102.6c2-2.5,40,10.3,57.5,28.3c17.5,18,23.8,41.6,23.8,41.6l-0.7,0.8c-2.4-1.5-32.2-9.2-57.8-34.7
	C57.3,122.6,48.6,105.1,50.6,102.6z"/>
<path class="st6" d="M126.1,230c-1.1,2.7-5.6,11.9-13.1,18.9c-6.7,6.3-24,9-23.9,3.8c0-9.6,7.9-25.6,17.4-31.2
	c15-8.8,28.3-5.6,28.3-5.6S129.4,222.3,126.1,230z"/>
<g>
	<path class="st8" d="M126.8,519.3c-5.9,0-10.7-4.8-10.7-10.7V59.3c0-5.9,4.8-10.7,10.7-10.7h499.3c5.9,0,10.7,4.8,10.7,10.7v449.3
		c0,5.9-4.8,10.7-10.7,10.7H126.8z"/>
	<path class="st9" d="M626.2,49.4c5.5,0,9.9,4.4,9.9,9.9v449.3c0,5.5-4.4,9.9-9.9,9.9H126.8c-5.5,0-9.9-4.4-9.9-9.9V59.3
		c0-5.5,4.4-9.9,9.9-9.9H626.2 M626.2,47.8H126.8c-6.3,0-11.5,5.2-11.5,11.5v449.3c0,6.3,5.2,11.5,11.5,11.5h499.3
		c6.3,0,11.5-5.2,11.5-11.5V59.3C637.7,52.9,632.5,47.8,626.2,47.8L626.2,47.8z"/>
</g>
<g id="plant_00000075148394468234554280000011724049829921672882_" transform="translate(-286.534 -412.471)">
	<path id="Tracé_234_00000137815901252647650210000006084458042939325085_" class="st6" d="M965.2,897.1
		c0.9,0.2,18.8-4.9,39.5-24.8c17.9-17.3,22.2-33.8,24.4-33.7c3.4,0.1,9,33-10.3,49.6C997.1,906.8,965.2,897.1,965.2,897.1"/>
	<path id="Tracé_235_00000130624894020462763180000009627754715097912728_" d="M919.1,959c14.4,5.1,28,18.6,56.5,11.8
		c21.7-5.2,35.8-28.6,34.5-31.3c-0.8-1.7-21.2-11-43.7-9.8c-35.4,1.9-61.7,28.1-61.7,28.1S909.2,955.5,919.1,959"/>
	<path id="Tracé_236_00000127743782764888830860000014980724766369248131_" class="st10" d="M920.9,952.1
		c14.4,5.1,28,18.6,56.5,11.8c21.7-5.2,35.8-28.6,34.5-31.3c-0.8-1.7-21.2-11-43.7-9.8c-35.4,1.9-61.7,28.1-61.7,28.1
		S911,948.5,920.9,952.1z"/>
	<path id="Tracé_237_00000160904583973608449010000002883107080943767194_" class="st11" d="M939.7,887.2c-2.9-2.7-13.5-12-20.2-26
		c-6-12.6-2.1-39.8,4-37.9c11.4,3.6,28.7,21.6,33.2,38.3c7.2,26.2-13.2,46-13.2,46S948.2,895.1,939.7,887.2"/>
	<path id="Tracé_238_00000127014454640656325790000003827663034428659860_" d="M1019.1,825.4c5.1-4.8,6.2-12.5,3.5-14.1
		c-6.5-3.9-18.2,0.8-22.1,10c-4,9.6-1.7,17.2-1.7,17.2c1.9-2.3,4.2-4.3,6.7-5.9C1008.7,830.5,1014.4,829.8,1019.1,825.4"/>
	<path id="Tracé_239_00000091696779169330258540000013451237060732290458_" class="st12" d="M987.3,854.2c-0.6,4.4-1.2,7-1.2,7
		l-2.4,7.6c0.3-1,0.5-2.1,0.6-3.2c0.4-3.4-1.8-9.7-4.2-13.4c-8.5-12.7-31.2-26.3-41.8-34.7c-24-19.1-35.1-43.2-33.7-51.1
		c0.3-1.8,19.9-5.3,38.4,0.8c16.6,5.5,31.7,19.8,39.7,39.2c7,17.2,6.1,36.6,4.8,47"/>
	<path id="Tracé_240_00000127746703550539907560000005890278685648948113_" class="st10" d="M986.1,861.2c0.3-1.3,0.6-2.6,0.7-3.9
		c0.4-3.4-2.1-9.9-4.6-13.6c-8.5-12.7-31.2-26.3-41.8-34.7c-24-19.1-35.1-43.2-33.7-51.1c0.3-1.8,19.9-5.3,38.4,0.8
		c16.6,5.5,31.7,19.8,39.7,39.2c10.2,25,3.5,54.7,3.5,54.7L986.1,861.2z"/>
	<path id="Tracé_241_00000073681916426661432820000017721236962545074568_" class="st13" d="M987.4,850.5
		c0.3-10.1-2.1-19.9-5.5-29.8c-11.8-34.3-57.1-55-57.1-55"/>
	<path id="Tracé_241_00000091698727576986721720000003690959267854055093_" class="st10" d="M983.6,869.1
		c2.4-6.1,3.6-10.3,3.8-15.1"/>
	<path id="Tracé_242_00000007403993850010355630000003985848091493953188_" class="st10" d="M888.5,965.2
		c2.7-7.5,12-28.1,38.4-44.4c33-20.3,48-30.1,56.4-51"/>
	<path id="Tracé_243_00000075132169192010660750000008457407156262655122_" class="st14" d="M1006.8,937.2c0,0-12.9-3.1-47.8,0.9
		c-38.4,4.5-68.6,25.1-68.6,25.1"/>
	<path id="Tracé_244_00000054969339954942448390000011068796824040992651_" class="st13" d="M945.5,763l5.1,18.7l-24.3-1.1"/>
	<path id="Tracé_245_00000128452031560099680430000005565172369300342147_" class="st13" d="M963.3,774.6l1.1,19.2l-26.2-0.3"/>
	<path id="Tracé_246_00000160902734938843895290000016460262805215691685_" class="st13" d="M976.7,789.7l-1.4,17.2l-27.6-0.4"/>
	<path id="Tracé_247_00000039829335429861120640000014298183905690811299_" class="st13" d="M985.6,809.3l-2.9,14l-13.3-1"/>
	<path id="Tracé_248_00000131338347205283124310000010648886480891832228_" class="st13" d="M989.5,930.3l-10.6,5.7l17.7,8.9"/>
	<path id="Tracé_249_00000112622684744434693800000014057829597968653733_" class="st13" d="M968.8,929.5l-9.7,8.6l25.3,15.5"/>
	<path id="Tracé_250_00000155860188721142484160000004386352162495931327_" class="st13" d="M946.7,933.3l-7,8.9l21,15.3"/>
</g>
<g id="Groupe_11_00000116927588221068688550000008858674054065059514_" transform="translate(-1210 -583)">
	
		<rect id="Rectangle_19_00000173122663847054904910000003833300736701775544_" x="1383.8" y="927.7" class="st15" width="178.4" height="128.8"/>
	<path id="Tracé_31_00000078041523472650417470000008043471645274876045_" class="st16" d="M1482.1,1056.5h-98.3l49.4-63.5
		L1482.1,1056.5z"/>
	<path id="Tracé_32_00000029020501480498333570000005882765770853707406_" class="st16" d="M1562.2,1056.5h-131.4l66-87.1
		L1562.2,1056.5z"/>
	<circle id="Ellipse_7_00000150078054265691880040000009130380922957463696_" class="st16" cx="1453.3" cy="959.5" r="9.9"/>
</g>
<g id="Groupe_11_00000119096902038840244240000002225839335914562436_" transform="translate(-1210 -583)">
	
		<rect id="Rectangle_19_00000158007467088561835330000011285427626533795517_" x="1326.9" y="702.9" class="st15" width="519.2" height="178.6"/>
	<path id="Tracé_31_00000048494953434362232560000003833911103883483805_" class="st16" d="M1541.7,881.5h-179.6l90.2-94.8
		L1541.7,881.5z"/>
	<path id="Tracé_32_00000180361031420316388580000012584911512992456620_" class="st16" d="M1688.1,881.5H1448l120.6-130.1
		L1688.1,881.5z"/>
	<circle id="Ellipse_7_00000104676622169931989120000003782283054424658107_" class="st16" cx="1492.6" cy="754.9" r="11.9"/>
</g>
<line class="st17" x1="384.4" y1="345.6" x2="550" y2="345.6"/>
<line class="st18" x1="384.4" y1="368.4" x2="577.4" y2="368.4"/>
<line class="st18" x1="384.4" y1="386.8" x2="577.4" y2="386.8"/>
<line class="st18" x1="384.4" y1="405.2" x2="577.4" y2="405.2"/>
<line class="st18" x1="384.4" y1="425.5" x2="508.7" y2="425.5"/>
<path class="st7" d="M470.1,448.7h-86.4c-1.2,0-2.2,1-2.2,2.2v20.4c0,1.2,1,2.2,2.2,2.2h86.4c1.2,0,2.2-1,2.2-2.2v-20.4
	C472.3,449.7,471.3,448.7,470.1,448.7z"/>
<line class="st19" x1="397.7" y1="461.1" x2="456.1" y2="461.1"/>
<rect x="371.2" y="148.3" class="st8" width="206.2" height="121.8"/>
<line class="st20" x1="393.5" y1="171.9" x2="554.7" y2="171.9"/>
<line class="st21" x1="371.2" y1="98.1" x2="416.6" y2="98.1"/>
<line class="st21" x1="444.9" y1="98.1" x2="483.5" y2="98.1"/>
<line class="st21" x1="508.4" y1="98.1" x2="547" y2="98.1"/>
<line class="st18" x1="393.7" y1="191.5" x2="554.7" y2="191.5"/>
<line class="st18" x1="393.7" y1="209.9" x2="554.7" y2="209.9"/>
<path class="st7" d="M481.3,232.2h-86.4c-1.2,0-2.2,1-2.2,2.2v20.4c0,1.2,1,2.2,2.2,2.2h86.4c1.2,0,2.2-1,2.2-2.2v-20.4
	C483.5,233.2,482.5,232.2,481.3,232.2z"/>
<line class="st19" x1="408.5" y1="244.6" x2="467.7" y2="244.6"/>
<g>
	<path class="st22" d="M116.1,77.2V59c0-5.8,4.7-10.4,10.4-10.4h499.8c5.8,0,10.4,4.7,10.4,10.4v18.2H116.1z"/>
	<path class="st22" d="M626.4,49.4c5.3,0,9.7,4.3,9.7,9.7v17.4H116.9V59c0-5.3,4.3-9.7,9.7-9.7H626.4 M626.4,47.8H126.6
		c-6.2,0-11.2,5-11.2,11.2v17.4V78h1.6h519.2h1.6v-1.6V59C637.7,52.8,632.6,47.8,626.4,47.8L626.4,47.8z"/>
</g>
<g id="btn-interface_00000061448668847889777650000013481304508991440293_">
	<circle class="st23" cx="133.4" cy="62.9" r="4.4"/>
	<circle class="st24" cx="147.8" cy="62.9" r="4.4"/>
	<circle class="st25" cx="162.4" cy="62.9" r="4.4"/>
</g>
<g>
	<g>
		<g>
			<path class="st26" d="M443.2,584.2"/>
		</g>
	</g>
	<path class="st27" d="M121.7,447.6c0,0,22.3,14.1,25.8,16.2s14.2,7.1,22,8c7.8,0.8,21.8,3.4,25,3.8c3.1,0.3,8.8,1,9.5,4.6
		c0.7,3.6,0.1,8.8-1.3,9.9c-1.4,1.1-4.5,1.4-10.1,1c-5.6-0.4-25.2-2.4-32.7-3.2c-7.5-0.8-13.4-1.7-18.3-4.4
		c-3.9-2.2-19-9.4-24.2-11.8l1.1-18.9L121.7,447.6z"/>
	<path class="st28" d="M121.8,447.7c0,0,25.7,16.4,30.7,19c4.2,2.2,12.4,3.9,17.6,5c5.3,1.1,30.5,4.3,32.5,5.7
		c2,1.5,1.8,6.6,1.6,8.7c-0.3,2.1-1.9,5.7-4.5,5.5c-2.5-0.3-48.9-3.8-54.2-6.2c-4.6-2.1-28.3-13.8-28.3-13.8"/>
	<path class="st29" d="M204,477.5c0,0,4.3-5,5.5-6.1s7.5-4.5,7.5-4.5l4.3,1.5l-7.4,2.2c0,0,6.8-2.4,10-2c3.2,0.4,6.1,3.1,6.1,3.1
		l-10.4,2.1c0,0,10.6-2,12.2-1.3c2.3,1.1,3.6,5,3.6,5l-11.7,1.2c0,0,11.5-1.1,13.3-0.9c1.8,0.2,7.6,0.8,11.2,1.8
		c3.1,0.8,4.8,2.5,3.5,4.4c-1.3,1.8-10.9,0.6-14.3,0.5c-2.5-0.1-12.8,2.7-12.8,2.7l-2.2,2.5c0,0,3.8,0.6,5.6,0.8
		c1.8,0.2,4.3-0.5,6.6,0c1.7,0.3,3.4,1.6,2.8,3.2c-0.6,1.6-7.8,2.9-9.7,3.2c-1.3,0.1-12.9-1.4-15.6-2.1c-2.7-0.8-9.2-3.8-9.2-3.8"/>
	<path class="st30" d="M335.6,556.1c-0.2-4.1-3.9-3.6-6.6-3.6c-2.7,0-29.3-3-42.7-5.5c-2.7-0.5-6.4-1.3-10.7-2.2
		c-19-19.5-58.6-59.9-62.6-61c-5.4-1.5-12.9-2.2-16.8-0.4c-0.4,0.2-1.5,0.8-3,1.8L88.5,560c4.6,9,9.9,13.9,16.7,16.1
		c6.1,2,20.3,0,30.1-3c19.8-0.4,79.1-8.3,84.3-8.7c6.1-0.5,39.9,3.9,44.3,4.3c0.5,0.1,1.7,0.1,3.4,0.2c2,1.7,3.2,2.7,3.5,2.7
		c1.6,0.3,4.9-0.2,8.6-2.4c18.5,0.5,46.9,1.2,48.6,1.4c2.4,0.3,3.8,0.1,5.3-1C334.7,568.5,335.7,560.2,335.6,556.1z M219.1,534.8
		c-13.4-0.4-26.4-1.6-26.4-1.6s-3.1-0.1-6.8,0c10.4-9.7,18.7-17.6,19.7-18.6c0.7-0.7,0.8-1.3,1.1-2.6c0.2-0.8,0.4-0.8,0.6,0
		l-0.3,1.5c0,0.2,1.3,1.3,1.4,1.4c1.7,1.3,11.6,10.6,23.1,21.3C226.4,535.4,222,534.8,219.1,534.8z"/>
	<path class="st29" d="M335.7,550c0,0,5.7-10.4,8-14.3c2.6-4.7,6.5-13.9,6.5-15.2c0-4.8,0.8-9.7,5.4-10c1.1-0.1,2.4,2.7,2,6
		c-0.4,3.2-0.6,10.4-0.6,15.5c0,5-3.5,15.3-3.5,19s1.8,13.6-2.5,15.7s-16.9-2.1-16.9-2.1"/>
	<path class="st29" d="M273.7,567.9c0,0-1.3,3.2-0.6,5.8c0.7,2.5,14.3,1.6,18.3,0.7c3.9-1,17.3,0.7,22.4,0
		c5.1-0.7,12.2-0.4,11.5-2.1c-0.7-1.7-0.7-5.8-4.1-5.8c-3.4,0-26.9-7.1-29.7-7.6c-2.8-0.4-4.6-1.8-4.6-1.8"/>
	<path class="st28" d="M88.9,556.6c4.6,9,9.9,13.9,16.7,16.1c8,2.6,29.8-1.6,37.5-6c12.9-7.5,60.6-53.3,62.9-55.5
		c0.7-0.7,0.8-1.3,1.1-2.6c0.2-0.8,0.4-0.8,0.6,0l-0.3,1.5c0,0.2,1.3,1.3,1.4,1.4c4.1,3.4,60.2,56.2,62.4,56.5
		c2.3,0.4,8-0.8,13.3-5.9s1.5-10.4,1.5-10.4s-67.3-69.9-72.6-71.3c-5.4-1.5-12.9-2.2-16.8-0.4c-0.4,0.2-1.5,0.8-3,1.8"/>
	<path class="st31" d="M125.5,457.4c0,0-3.5-8.6-3.5-9.4c0-0.8,1.5-7.4,2.7-12.9l-18.7-6.9l-3,18.5l16.3,5.8L125.5,457.4"/>
	<path class="st28" d="M139.6,568.3c0,0,71.9-5.9,77.4-6.9c4.5-0.8,38.7,3,51.7,4.5"/>
	<path class="st28" d="M186.9,529.3c0,0,31.1,2.2,36.7,2.2c2.7,0,6.3,1,9.4,1.9"/>
	<path class="st28" d="M276.1,541.5c0,0,42.6,7,47.7,7.5c5.1,0.4,10.1-0.6,11.1,0.4c1,1,1.8,6.7,0.7,11.1c-1.1,4.4-2.1,6.7-3.9,6.7
		s-11-0.6-11-0.6"/>
	<path class="st31" d="M130.9,434.9c17.5-3.3,21.4-20,19-33.1c-1.7-9.4-7.8-21-7.8-21s-4.2-16.7-13.2-17.8
		c-9.1-1.1-42.1,12.1-44.9,23.7c-2.8,11.6,14,38.4,18,40.5S113.8,438.1,130.9,434.9z"/>
	<path class="st31" d="M131.4,496.9l-17.1-11.7c18.2,13.6,44.5,27.6,48.2,26.1c5.3-2.1,42.6-39.3,45.6-45.9
		c3-6.6-11.4-11.6-11.4-11.6l-37.4,35c0,0-32.9-33-42.4-37.7c0,0-18.6-9.3-27.4,6.4s-6.9,59.4-6.9,59.4c-1,11.7-0.7,39.4,0.3,41.9
		c1.9,4.7,17.7-1.3,24.2-3c19.4-5,22-29.8,22-29.8s-4.5-21.1-1.8-26.4C127.5,499.5,130.6,497.9,131.4,496.9"/>
	<path class="st6" d="M142.7,368.8c-6.6-7.1-20.3-11.9-36.4-7.9S82.9,378.5,80.8,384c-2.1,5.5-3.3,13.1-3.3,18.5
		c0,5.4-0.2,17.1,0.6,18.7c0.8,1.6,2.2,2.9,2.2,2.9l0.3,4.5c0,0-3.7,5.2-6.1,8.1s-13.4,13.5-14.8,19c-1.5,5.4-2.7,11.6,0.8,19.6
		c3.6,8,5.9,9.4,6.1,11.8c0.3,2.5-1,5.9-4.3,6.1c-3.2,0.2-7.8-5.9-7.8-5.9s1,8.4,5,11c4,2.6,5.5,2.1,5.5,2.1s0.7,9.3,5.9,12.4
		c5.2,3.1,12,5.1,19.9,2c8-3,15.9-6.4,19.7-14.2c3.8-7.8,6.9-18.5,7.2-26.2c0.3-7.7-0.8-14.3-0.8-14.3s4.3-4.9,5.7-7
		c1.4-2.1,6.6-13,6.6-19.2c0-6.1-0.6-17-3.1-22.8c-2.4-5.8-2.7-6.8-2.7-6.8s3.1-6.3,4.8-11.1c2.9-5.8,5.5-18.7,5.5-18.7
		s5.8,2.7,7.1,4.3c1.4,1.6,6.2,6.9,6.2,6.9S149.2,375.9,142.7,368.8z M121.7,440.1c-1.4,6.3-5.7,13.9-5.7,13.9s-3.3-9.2-3.5-14.1
		c-0.2-4.9,0.3-7.6,0-7.7c-2.1-0.8-4.6-2.3-6.4-5c-2-3.2-2.8-11.5-2.6-13.4c0.3-1.9,2.4-4.7,5.5-4.4c3.1,0.3,4.8,2.8,6.4,4.7
		c1.6,1.9,5.3,13.2,5.3,13.2S122.7,435.5,121.7,440.1z"/>
	<path class="st28" d="M208.4,462.2"/>
	<path class="st32" d="M77.1,417.7l-1.2-1.7c0,0-1-19.1,0.1-26.3c1.2-7.2,4-18.4,19.9-28.2c14.7-9.1,33.5-5.8,39-1.7
		c2.1,1.6,6.7,7.1,8.1,11.1c1.3,4,2.1,14.1,2.1,14.1s-6.3-8.2-8.6-10.1c-2-1.5-5.4-3.6-5.4-3.6s-2.3,19.9-13.8,33.6
		c-1.3,1.5-2.6,2.9-3.9,4.2l-1.2-1.5c0,0-5-5.7-9-2.4c-4,3.3-1.7,14,0.8,17.3c2.2,2.8,5.9,5.7,9.7,4.5c3.6-1.1,4.4-5.1,4.4-5.1"/>
	<path class="st32" d="M99,380.1c0,0-0.4,9-2.6,15.9c-2.2,6.9-5.8,12.2-9.9,16.4c-4.1,4.1-9.4,4.3-9.4,4.3l-0.4,5.8
		c0,0,3.4,0,11-1.3c3.7-0.6,9-2.4,13.8-5.2"/>
	<path class="st32" d="M121.3,399.1c0,0,8.2,15.4,4.2,32.4c-4.1,17-11.4,22-11.4,22l-1.7-5.6c0,0,5.8-9.1,6.4-18.2
		c0.6-9.1-5.5-20.6-5.5-20.6"/>
	<path class="st32" d="M109,425.4c-0.1,0.5-0.1,0.9-0.1,1.4c-0.6,8.4,2.4,17.4,5.2,26.7c2.8,9.2-0.6,28.8-5.7,39.7
		c-6.6,14.2-25.7,19.9-35.8,16.9c-10.6-3.1-10.8-14.8-10.8-14.8"/>
	<path class="st28" d="M79.4,422.5c0,0,7.6,14,1.7,25.6c-6.6,13.2-10.1,19.6-7.6,25c2.6,5.4,3.3,9.2,0.2,14.3
		c-2.7,4.6-9.2,9.3-15.5,6.7c-5.8-2.4-7.1-12.5-7.1-12.5s4.1,7,8.4,5.8c3.6-1,4.8-5.9,1.3-10.6c-3.5-4.7-7.8-13.2-6-23.4
		c1.7-10.1,12-18,15-22.2c3-4.1,6.6-8.8,6.6-8.8L79.4,422.5L79.4,422.5z"/>
	<path id="oeil_00000124148795259957286730000008000340856427641275_" d="M137.6,397.2c1-0.3,2.4,1.6,3.2,5c0.9,3.3,0.8,5.4-0.2,5.7
		c-1,0.3-2.5-1.5-3.4-4.8C136.4,399.7,136.6,397.4,137.6,397.2z"/>
	<path class="st31" d="M150,401.3c0,0,5.5,5.1,5.5,5.9c-0.1,0.7-5.2,5.9-5.2,5.9s0.4-2.7,0.4-6C150.7,404.3,150,401.3,150,401.3z"/>
	<path class="st32" d="M113.6,378.8c0,0-6.5,18.7-10.7,24.1s-9.6,10.2-14.2,12.9c-5.6,3.2-11.8,3.6-11.8,3.6"/>
	<path class="st32" d="M76.4,417.3c0,0-0.5-0.8-1.5-0.8c-0.9,0-2,0.9-2.2,2.6c-0.1,1.7,0.8,2.8,1.8,2.9c1,0.1,1.7,0.1,1.8-0.9
		C76.4,420.1,76.4,417.3,76.4,417.3z"/>
	<path class="st28" d="M154.2,508.6c-13.7,9.4-25.4,17.5-25.4,17.5"/>
	<path class="st32" d="M149.4,417.3c0,0-0.5,3.7-4.7,5.5c-2.3,1-4,0.6-4,0.6"/>
	<path class="st32" d="M130.7,394.5c0,0,2.1-2.9,4.7-4.3c2.5-1.3,3.8-1,3.8-1"/>
	<path class="st29" d="M223.8,454c4.1-2.4,5.2-2.9,6-3.9c0.1-0.2,1.3-1,0.5-3.1c-0.4-1.1-2.1-1.5-2.1-1.5l-0.1,0
		c0.9-0.7,1.2-2.4,0.8-3.5c-0.5-1.4-2.1-1.9-2.1-1.9l-8.3,4.5l8.4-4.7c0,0,1.3-0.9-0.2-3.5c-1.5-2.5-3.3-1-8,0.7
		c-2.1,0.8-3.5,1.3-4.5,1.7c-0.6-0.4-2-1.6-2-2.1c0-0.7,1.8-7.5,2-8.5c0.7-3.1,0.5-5.7-0.3-7.5c-0.8-1.9-3.5-2-3.5-2
		s0.1-0.8-0.2-0.8c-0.2,0-0.7,5.2-1.5,7.3c-0.8,2.1-2.7,8.9-4.6,11c-2.7,2.9-7.2,17.3-7.2,17.3l11.6,9.7c0,0,12.9-3.4,14.7-4.6
		c1.2-0.8,4.4-3.6,5.3-4.5c2.5-2.3,1.3-3.9,1.3-3.9L223.8,454z M220.8,449.7c0,0,3.6-2.5,6.9-3.8h0l-1.1,0.7L220.8,449.7z"/>
</g>
<g>
	<g>
		<path class="st31" d="M647.7,547.8c0,0.4-5.9,14-4.8,16.7c1.1,2.7,5.9,5.5,6.4,6.8s-0.1,10.5,1.6,13.2c1.7,2.7,3.4,4.9,7.6,4.9
			s12.4-0.8,14-2.5c1.7-1.7,2-6.2-0.6-8.4c-2.6-2.2-7.3-10.8-7.8-12.7c-0.5-1.8-4.4-18-4.4-18L647.7,547.8z"/>
		<path class="st31" d="M603.1,544.1c0.1,1.1,5,17.2,5,19.2s-3.3,5-5.6,5s-4.8,0.5-4.8,0.5s-2.4,6.4-7.6,7.2
			c-5.2,0.8-17,0.1-18.6-1.9s-0.7-6.6,0.5-6.9c1.2-0.3,12.3-3.3,13.4-5.2c1.1-1.9,8-16.6,8-16.6L603.1,544.1z"/>
		<path class="st33" d="M626.6,313.8c0,0,14.5,22.8,14,50.2c-0.3,16.3,3,58.3,3.7,61.7c0.7,3.3,10.7,42.8,11.8,59.8
			c1.1,17,5.5,64.6,5.5,64.6s-1.5,3-6.6,3s-9.2-4.3-9.2-4.3s-14.1-60.2-16-74.2s-10-35.1-10-41s-21.8-72-21.8-72l5-0.7l-12.1,1
			l5.1-0.4c0,0,1.8,62.7,1.8,72.7s-0.5,26.5,0.2,36.4c0.7,10,7,73.6,7,75.1s-0.7,7-6.6,7s-7.8-3-7.8-3s-14.4-67.6-15.1-80.9
			c-0.7-13.3-7-43.9-9.6-53.2c-2.6-9.2-12.6-45.5-11.4-60.2c2-26.8,8.6-44.2,8.6-44.2L626.6,313.8z"/>
		<path class="st34" d="M610.8,196.6c0,0-1.2,14.6,0.5,17.3s5.5,5.7,5.5,5.7s0.1,15.1-9.3,18.3c-9.4,3.2-20.2,3.7-24.8-0.3
			c-4.5-3.9-0.4-14.8-0.4-14.8s5-2.1,5.8-2.7c0.7-0.6,1.2-2.5,1.2-6.9s-2.8-13.7-1.1-15.3s7.9-5.4,13.9-5
			C608.1,193.3,610.8,196.6,610.8,196.6z"/>
		<path class="st34" d="M493.2,280.7c0.3,0.1,0.8,0.3,1.3,0.5c0.1,0.1,0.2,0.1,0.4,0.2l0-0.1c9.8,3.6,44.9,16.5,49.4,15.1
			c5.3-1.6,23.6-29.4,23.6-29.4l3.7-19.9l-13.4,1.6c0,0-15.8,26.9-18.5,29.6c-2.1,2.1-31.1-5.5-42.5-8.6l0.1-0.5L493.2,280.7z"/>
		<path class="st31" d="M587,220c0,0-5.1,15,4.3,17.2c16.9,4,23.6-21.4,23.6-21.4s5.9-0.1,11.7,0.3c5.8,0.4,11.2,5.7,13.5,8.6
			c2.3,2.8,12.1,10.5,12.1,10.5s-4,4.2-5.8,6s-9.7,10.2-9.7,10.2l-2.3-2.1c0,0-8.2,37.7-10.1,48.6c-1.6,9.3,10.6,26.1,8.3,28.3
			c-2.3,2.3-18.2,12.7-41,11.9c-25.2-0.9-35.2-16.6-32.8-20.1s12.5-19.7,13.2-23.6c0.7-3.9-1.6-23.5-1.6-23.5s-5.6-11.3-4.1-16.6
			c1.6-5.3,5.7-12.9,6.9-14.1s-6.7,11.8-6.7,11.8l-9.3-4.1c0,0,9.8-15.4,12.7-18.3c2.9-2.9,4.8-5.1,8-6.3S587,220,587,220z"/>
		<path class="st34" d="M651.4,235.9c0,0,19.3,27.5,21.4,31.6s4.1,8.5,3.1,11.5c-1.3,3.8-25.2,29.7-29.5,32.8s-12,10.2-14.9,9.5
			c-2.9-0.7-10.2-1.6-12.2-1.1c-2,0.5-7,2.4-7.8,2.4c-0.8,0-1.6-0.8-1.6-0.8l6-3.7c0,0-7.9,4.9-8.8,5s-2.6,0.4-2.9-0.5
			c-0.3-0.9-0.2-1.9,0.9-2.5c1.1-0.6,12.4-6.6,12.4-6.6s-10.5,4.6-12.7,4.8c-2.1,0.2-4,0.9-4.6-0.2s-0.7-2.4,0.3-2.9
			c1-0.6,13.9-4.8,13.9-4.8l-12.1,3.3c0,0,0.6-2,1.9-2.9c1.3-1,11.6-4.1,13.7-4.9s2.3-0.8,3.6-0.4c1.3,0.5,9.2,5.1,10.1,5
			s1.9,0.2,4.4-1.8s22.4-29.3,22.7-31.4s-3.2-6.1-7.1-12c-3.9-5.9-13.9-14.8-13.9-14.8L651.4,235.9z"/>
	</g>
	<g>
		<path class="st35" d="M613.9,198.7c0.2,5.7,7.4,19.2,19,16.9c11.1-2.2,13.5-9.1,14.3-12.8c1.6-7.4-1-12.4-1-12.4s6.7-7.1,3.5-14.2
			c-2.5-5.6-5.7-7.8-5.7-7.8s2.5-6.6,0.2-14c-2-6.3-8.2-11-8.2-11s0-8.7-7.4-13.7c-4.5-3.1-12.7-2.9-12.7-2.9s-3.4-5.5-13.7-7.2
			c-10.1-1.7-16,4.8-16,4.8s-11.6-0.5-18.5,8c-6.9,8.5-10.6,15.8-11.4,20.9c-0.8,5.1,1.3,16.8,1.3,16.8s-5.7,3.5-6.3,11.8
			c-0.5,6.5,3.3,11.1,3.3,11.1s-3.5,7.2-0.2,12.8c3,5.1,9.3,10.2,15.8,8.7c6.2-1.4,11.6-8.9,11.6-8.9"/>
		<path class="st34" d="M566.1,162.8c0,0-1.3,20.5,3.5,30.3c4.3,8.7,10.9,13.1,17.7,14.5c6.8,1.4,17.1-1.4,22.4-5.1
			c5.3-3.7,9.8-12.3,9.8-12.3s2.3,2.9,5.8,1.5s8.1-9.3,6.5-15.7c-1.4-5.8-5.2-6-7.4-4.5s-5,9.3-5,9.3l-0.8-10.9
			c0,0-14.1-5.7-21.1-13.6c-7.1-8-12.8-18.9-12.8-18.9s-3.1,8.8-9.1,15.8C571.1,158.7,566.1,162.8,566.1,162.8z"/>
		<ellipse cx="599.3" cy="174.4" rx="1.6" ry="5.3"/>
		<ellipse cx="578" cy="174.4" rx="1.6" ry="5.3"/>
		<polygon class="st28" points="586.9,182 583.4,186.1 588,187.9 		"/>
		<path class="st29" d="M580.1,194.2c0,0,5.9,0.8,8.9,0.6c3-0.2,7.6-1.2,7.6-1.2s-3.3,4.8-7.2,5.2
			C585.7,199.2,580.1,194.2,580.1,194.2z"/>
		<path class="st28" d="M572.1,163.6c0,0,2.6-1.5,4.2-1.8c2-0.3,4.6,0.6,4.6,0.6"/>
		<path class="st28" d="M596.9,162.2c0,0,5.4-0.5,7.1,0.2c1.6,0.7,3.6,2.7,3.6,2.7"/>
	</g>
	<g>
		<path class="st34" d="M491.9,267.7l-2.3-0.8c0,0-1.9-2.7-3.1-3.6s-3.7-3-3.7-3s-6.5,0.3-7.6-0.3c-1.1-0.6-7.3-1-7.3-1
			s2.1-1.9,3.9-1.9c1.8-0.1,10.1-0.7,12.1-0.7c1.9,0,13.3,5.2,13.3,5.2s3.9,2.6,4.7,6c0.8,3.4,2.6,9.3-0.8,11.8
			c-3.5,2.5-7.7,3.7-9.8,3.3c-2.1-0.4-5.5-4.1-5.5-4.1"/>
		<g>
			<polygon class="st36" points="452.7,257.2 458.8,245.6 524.2,279.8 521.6,284.9 518.2,291.4 			"/>
			<line class="st37" x1="456.2" y1="250.6" x2="521.5" y2="284.7"/>
			<polygon class="st36" points="440.7,243.3 446.8,244.1 458.8,245.6 452.7,257.2 			"/>
			<path class="st33" d="M445.7,249c0,0,1.5,0.4,1.7-0.6c0.2-1-0.4-4.1-0.4-4.1l-6-0.8L445.7,249z"/>
		</g>
		<path class="st34" d="M489.6,280.5c0,0,2.9-6.9,3.6-8.1c0.7-1.2,2.3-4.4,0.6-4.9c-1.7-0.5-4.2,0.9-5.2,2.4s-5.1,6.9-5.2,8.2
			c-0.1,1.3,0.1,3.4,1.8,4.1C486.8,282.8,489.6,280.5,489.6,280.5z"/>
		<path class="st34" d="M490,267.5c-0.3-1.3-1.9-2.7-2.6-2.5c-0.8,0.2-3.7,2.4-5.2,4.1c-1.5,1.7-4.9,5.2-4.3,7.1
			c0.6,1.9,2.1,3.1,3,3.1s2.2-0.7,2.2-0.7L490,267.5z"/>
		<path class="st34" d="M486.1,264.5c0,0-0.9-0.9-2.4-0.9s-4.1,1.9-5.5,3.3s-5.2,3.8-5.6,5c-0.3,1.2,0.8,3.6,1.7,4s3.4-0.1,3.4-0.1
			l6-7.9L486.1,264.5z"/>
		<path class="st34" d="M469.4,264c-0.6,0-3,0.3-3.5,1.9c-0.4,1.5,0.6,4.7,1.7,5.1c1.1,0.3,4.2-0.8,4.7-1.7c0.5-0.8,0.3-3.6-0.7-4.2
			C470.6,264.4,469.4,264,469.4,264z"/>
	</g>
</g>
<path class="st31" d="M251.3,220.6h81.9c4.7,0,8.6,3.8,8.6,8.6v81.9c0,4.7-3.8,8.6-8.6,8.6h-81.9c-4.7,0-8.6-3.8-8.6-8.6v-81.9
	C242.7,224.4,246.6,220.6,251.3,220.6z"/>
<path class="st38" d="M292.3,270.1"/>
<path class="st39" d="M292.3,270.1"/>
<g>
	<path d="M277.6,265.5H268l-3.7,10.4h3.6v0.9h-7.4v-0.9h2.3l12.3-33.2h4l12.2,33.2h2.2v0.9h-15.8v-0.9h3.4L277.6,265.5z
		 M268.4,264.5h8.7l-4.2-12.6L268.4,264.5z"/>
	<path d="M307.2,265.5v-3.7c0-6.1-0.5-7.7-2.5-7.7c-0.9,0-2.3,0.4-2.3,1.9c0,0.4,0.1,0.9,0.3,1.4h1.2c0.2,0.6,0.4,1.3,0.4,2.2
		c0,2.3-1.8,3.8-4.2,3.8c-3,0-4.2-1.6-4.2-4c0-4.1,3.5-5.9,10.1-5.9c7.6,0,10.1,2.1,10.1,9.1v9.8c0,2,0.6,2.5,1.4,2.5
		c0.9,0,1.7-0.9,1.9-5l0.7,0c-0.2,5.8-2,7.4-6.2,7.4c-3.9,0-6.1-1.2-6.7-3.6c-0.8,2.3-2.2,3.6-5.6,3.6s-7.1-1-7.1-5.8
		c0-4.9,4.2-6,11.1-6H307.2z M307.2,270.8v-4.5h-0.3c-2,0-3,1.4-3,4.4v0.8c0,3.5,0.3,4,1.3,4C306,275.4,307.2,273.9,307.2,270.8z"/>
</g>
<g>
	<path d="M261.5,291h-2.2l-0.9,2.4h0.8v0.2h-1.7v-0.2h0.5l2.8-7.7h0.9l2.8,7.7h0.5v0.2h-3.6v-0.2h0.8L261.5,291z M259.4,290.7h2
		l-1-2.9L259.4,290.7z"/>
	<path d="M268.1,289.1c0.2-0.6,0.6-1,1.5-1c1.3,0,2,0.9,2,2.8c0,1.9-0.8,2.8-2.3,2.8c-0.8,0-1.1-0.2-1.3-0.8l-0.1,0.7h-2.5v-0.2h0.6
		v-8h-0.6v-0.2h2.7V289.1z M268.1,290.1v2.1c0,0.6,0.3,1.1,0.7,1.1c0.5,0,0.7-0.7,0.7-2.2v-0.6c0-1.6-0.1-1.9-0.5-1.9
		C268.5,288.6,268.1,289.2,268.1,290.1z"/>
	<path d="M274.6,290.4v3h0.8v0.2h-3.5v-0.2h0.6v-4.9h-0.6v-0.2h2.7v1.1c0.2-0.8,0.8-1.2,1.5-1.2c0.7,0,1.2,0.3,1.2,1.2
		c0,0.6-0.3,1.1-0.9,1.1c-0.7,0-1.1-0.5-0.9-1.3h0.4c0.2-0.5,0-0.6-0.2-0.6C275.1,288.6,274.6,289.4,274.6,290.4z"/>
	<path d="M280.1,288.3v5.1h0.6v0.2h-3.3v-0.2h0.6v-4.9h-0.7v-0.2H280.1z M279.1,285.4c0.7,0,1.1,0.3,1.1,1c0,0.6-0.3,1-1.1,1
		c-0.9,0-1.1-0.6-1.1-1C278,285.9,278.3,285.4,279.1,285.4z"/>
	<path d="M283.7,285.2v8.2h0.6v0.2H281v-0.2h0.6v-8h-0.7v-0.2H283.7z"/>
	<path d="M292.4,285.8l0.1,2.3h-0.2c-0.5-1.6-1.1-2.1-2.6-2.1h-0.3v3.6h0.5c0.7,0,1.2-0.6,1.4-1.5h0.2v3.3h-0.2
		c-0.2-1.1-0.6-1.5-1.4-1.5h-0.5v3.4h1.4v0.2h-4.2v-0.2h0.7V286h-0.7v-0.2H292.4z"/>
	<path d="M295.5,291v-0.9c0-1.4-0.1-1.8-0.6-1.8c-0.2,0-0.5,0.1-0.5,0.4c0,0.1,0,0.2,0.1,0.3h0.3c0.1,0.1,0.1,0.3,0.1,0.5
		c0,0.5-0.4,0.9-1,0.9c-0.7,0-1-0.4-1-0.9c0-0.9,0.8-1.4,2.3-1.4c1.7,0,2.3,0.5,2.3,2.1v2.3c0,0.5,0.1,0.6,0.3,0.6
		c0.2,0,0.4-0.2,0.4-1.1l0.2,0c-0.1,1.3-0.5,1.7-1.4,1.7c-0.9,0-1.4-0.3-1.5-0.8c-0.2,0.5-0.5,0.8-1.3,0.8s-1.6-0.2-1.6-1.3
		c0-1.1,1-1.4,2.6-1.4H295.5z M295.5,292.2v-1h-0.1c-0.5,0-0.7,0.3-0.7,1v0.2c0,0.8,0.1,0.9,0.3,0.9
		C295.2,293.2,295.5,292.9,295.5,292.2z"/>
	<path d="M299,288.5h-0.6v-0.2h0.6v-1.4l2.1-0.5v1.9h1.4v0.2h-1.4v3.8c0,0.7,0.1,1,0.5,1c0.5,0,0.9-0.5,1-1.2l0.2,0
		c-0.1,0.9-0.5,1.7-1.8,1.7c-1.1,0-1.9-0.3-1.9-1.7V288.5z"/>
	<path d="M305.5,286.5v1.8h1.5v0.2h-1.5v4.9h1.4v0.2h-4v-0.2h0.6v-4.9h-0.6v-0.2h0.6v0c0-2,0.7-3.3,2.7-3.3c1.4,0,1.8,0.7,1.8,1.2
		c0,0.7-0.4,1-0.9,1c-0.6,0-0.9-0.3-0.9-0.8c0-0.2,0-0.3,0.1-0.5h0.4c0.2-0.5,0-0.8-0.3-0.8C305.6,285.1,305.5,285.6,305.5,286.5z"
		/>
	<path d="M310,291v-0.9c0-1.4-0.1-1.8-0.6-1.8c-0.2,0-0.5,0.1-0.5,0.4c0,0.1,0,0.2,0.1,0.3h0.3c0.1,0.1,0.1,0.3,0.1,0.5
		c0,0.5-0.4,0.9-1,0.9c-0.7,0-1-0.4-1-0.9c0-0.9,0.8-1.4,2.3-1.4c1.7,0,2.3,0.5,2.3,2.1v2.3c0,0.5,0.1,0.6,0.3,0.6
		c0.2,0,0.4-0.2,0.4-1.1l0.2,0c-0.1,1.3-0.5,1.7-1.4,1.7c-0.9,0-1.4-0.3-1.5-0.8c-0.2,0.5-0.5,0.8-1.3,0.8c-0.8,0-1.6-0.2-1.6-1.3
		c0-1.1,1-1.4,2.6-1.4H310z M310,292.2v-1h-0.1c-0.5,0-0.7,0.3-0.7,1v0.2c0,0.8,0.1,0.9,0.3,0.9C309.7,293.2,310,292.9,310,292.2z"
		/>
	<path d="M315.3,290.7v0.6c0,1.4,0.3,2.1,1.1,2.1c1,0,1.4-0.9,1.6-1.5l0.2,0c-0.1,0.7-0.5,1.8-2.4,1.8c-1.7,0-2.7-1-2.7-2.7
		c0-1.9,1.1-2.8,3-2.8c1.4,0,2,0.6,2,1.4c0,0.7-0.4,1-0.9,1c-0.6,0-1-0.3-1-0.9c0-0.1,0-0.2,0.1-0.4h0.4c0.1-0.2,0.1-0.3,0.1-0.4
		c0-0.4-0.2-0.5-0.5-0.5C315.6,288.4,315.3,289,315.3,290.7z"/>
	<path d="M321.4,288.2c1.7,0,2.5,0.9,2.4,2.5h-3.1v0.4c0,1.3,0.2,2.2,1.3,2.2c0.8,0,1.4-0.5,1.6-1.4l0.2,0c-0.3,1-0.8,1.7-2.4,1.7
		c-2,0-2.9-1.1-2.9-2.8C318.5,289,319.8,288.2,321.4,288.2z M321.8,290.5v-0.5c0-1.2-0.1-1.6-0.5-1.6c-0.4,0-0.6,0.4-0.6,1.6v0.5
		H321.8z"/>
</g>
<g>
	<path class="st31" d="M164.4,166.3c-6.1-9.8-18.9-17.5-33.2-17.5c-22.9,0-41.5,18.6-41.5,41.5s18.6,41.5,41.5,41.5
		c0.6,0,1.2,0,1.7,0c0.2,0,0.4,0,0.6,0c0.5,0,0.9-0.1,1.3-0.2c2.4-0.6,4.2-2.8,4.2-5.3c0-2.1-1.2-3.9-2.9-4.8c0,0,0,0-0.1,0
		c-1.6-0.8-2.7-2.5-2.9-4.4c-0.2-2.9,2-5.5,5-5.7c2.9-0.2,11.6-0.3,17.1-1.8c11-3,14.6-10.2,15.3-19.2
		C171.2,182.1,170.5,176.1,164.4,166.3z"/>
	<circle class="st23" cx="149.4" cy="185.7" r="9.8"/>
	<circle class="st6" cx="129" cy="164.8" r="8.9"/>
	<circle class="st40" cx="153" cy="185.7" r="9.8"/>
	<circle class="st7" cx="107.3" cy="180.6" r="7.3"/>
	<circle class="st38" cx="107.3" cy="203.1" r="4.6"/>
</g>
</svg>
