<?xml version="1.0" encoding="utf-8"?>
<!-- Generator: Adobe Illustrator 27.2.0, SVG Export Plug-In . SVG Version: 6.00 Build 0)  -->
<svg version="1.1" id="Calque_1" xmlns="http://www.w3.org/2000/svg" xmlns:xlink="http://www.w3.org/1999/xlink" x="0px" y="0px"
	 viewBox="0 0 200 160" style="enable-background:new 0 0 200 160;" xml:space="preserve">
<style type="text/css">
	.st0{fill:#FF7757;}
	.st1{fill:#4B7CB2;}
	.st2{fill:#E4ECEF;}
	.st3{fill:#FDFEFF;}
	.st4{fill:#C3D8E5;}
	.st5{fill:#FFD385;}
	.st6{fill:#1F253A;}
</style>
<g>
	<g>
		<path class="st0" d="M152.2,111.7c0,0,0.1-15.1,8-27.4s23.3-19.4,26.4-18.6c3.1,0.8,2.6,14.1-6.7,24.8S152.2,111.7,152.2,111.7z"
			/>
	</g>
	<g>
		<path class="st1" d="M157.1,117.2c0,0,11.4-9.8,16.2-12.5c7.2-4,14.5-5.8,21-4.1c6.5,1.7,3.2,4.2-0.9,5.5
			c-4,1.3-13.1,2.3-19.9,5.3c-6.8,3-15.5,7.3-15.5,7.3L157.1,117.2z"/>
	</g>
	<g>
		<rect x="15.5" y="27.9" class="st2" width="114.7" height="75.5"/>
	</g>
	<g>
		<polyline class="st3" points="161.5,131.1 46.6,131.1 46.6,55.4 161.5,55.4 161.5,131.1 46.6,131.1 46.6,55.6 161.5,55.6 		"/>
	</g>
	<g>
		<path class="st4" d="M161.5,131.1c0,0-30.6-43.5-33.2-43.5S96,111.4,96,111.4S75.5,99.6,73.7,99.8c-1.8,0.3-26.9,31.2-26.9,31.2
			L161.5,131.1L161.5,131.1z"/>
	</g>
	<g>
		
			<ellipse transform="matrix(0.9995 -3.127901e-02 3.127901e-02 0.9995 -2.4872 2.401)" class="st5" cx="75.5" cy="80.7" rx="6.9" ry="6.6"/>
	</g>
	<g>
		<polygon class="st6" points="46.8,117.6 29.3,117.6 29.3,39.6 146.4,39.6 146.4,48.1 143.9,48.1 143.9,42.1 31.8,42.1 31.8,115.1 
			46.8,115.1 		"/>
	</g>
	<g>
		<polygon class="st6" points="162.7,132.3 45.7,132.3 45.7,54.4 161.6,54.4 161.6,56.8 48.1,56.8 48.1,129.9 160.3,129.9 
			160.4,92.2 162.7,92.2 		"/>
	</g>
	<g>
		
			<rect x="160.4" y="74.5" transform="matrix(1.171873e-03 -1 1 1.171873e-03 85.6276 237.139)" class="st6" width="2.3" height="2.5"/>
	</g>
	<g>
		<polygon class="st6" points="161.5,132.3 45.7,132.3 45.7,54.2 162.8,54.2 162.8,70.2 160.3,70.2 160.3,56.7 48.2,56.7 
			48.2,129.8 161.5,129.8 		"/>
	</g>
</g>
</svg>
