<?xml version="1.0" encoding="utf-8"?>
<!-- Generator: Adobe Illustrator 27.2.0, SVG Export Plug-In . SVG Version: 6.00 Build 0)  -->
<svg version="1.1" id="Calque_1" xmlns="http://www.w3.org/2000/svg" xmlns:xlink="http://www.w3.org/1999/xlink" x="0px" y="0px"
	 viewBox="0 0 200 160" style="enable-background:new 0 0 200 160;" xml:space="preserve">
<style type="text/css">
	.st0{fill:#1F253A;}
	.st1{fill:#4B7CB2;}
	.st2{fill:#FFFFFF;}
	.st3{fill:#F0F5F7;}
	.st4{fill:#C3D8E5;}
	.st5{fill:#FFD385;}
	.st6{fill:#9DA7BA;}
	.st7{fill:#FF7757;}
</style>
<g id="pages_1_">
	<g>
		<g id="vegetation_9_">
			<g>
				<path class="st0" d="M62.7,104.5c0,0-11,5.5-17.5,3.5s-13.8-10.3-14.4-7.6c-0.5,2.7,2.4,12.6,10.5,14.4
					C49.4,116.5,62.7,104.5,62.7,104.5"/>
			</g>
		</g>
		<g>
			<g>
				<path class="st1" d="M62.5,102.5c0,0-8.1-2.3-11.7-12.7S41.2,63.5,37.5,61s-7.3,6.6-7,13.7s4.2,13.1,11,19.1
					C48.3,99.7,62.5,102.5,62.5,102.5"/>
			</g>
		</g>
		<g>
			<path class="st1" d="M66.5,103.7c-6.5,0-14.7-3.9-21.1-10.3C37.9,86,34.3,76.7,35.5,68l1.3,0.2c-1.2,8.3,2.3,17.1,9.5,24.2
				c6.8,6.7,15.9,10.7,22.2,9.7l0.2,1.3C68,103.6,67.3,103.7,66.5,103.7z"/>
		</g>
	</g>
	<g>
		<polyline class="st2" points="68.1,122.2 51.1,122.2 51.1,20.6 132.8,20.6 132.8,34.7 		"/>
		<polygon class="st0" points="68.1,123.5 49.8,123.5 49.8,19.3 134.1,19.3 134.1,34.7 131.6,34.7 131.6,21.8 52.3,21.8 52.3,121 
			68.1,121 		"/>
	</g>
	<g>
		<polyline class="st2" points="149.8,116 149.8,139 68.1,139 68.1,37.4 149.8,37.4 149.8,102.3 		"/>
		<polygon class="st0" points="151.1,140.3 66.8,140.3 66.8,36.1 151.1,36.1 151.1,102.3 148.6,102.3 148.6,38.6 69.3,38.6 
			69.3,137.8 148.6,137.8 148.6,116 151.1,116 		"/>
	</g>
	<g>
		<g>
			<polyline class="st3" points="113.4,84.1 76.3,84.1 76.3,50.1 113.4,50.1 113.4,84.1 76.3,84.1 76.3,50.2 113.4,50.2 			"/>
		</g>
		<g>
			<path class="st4" d="M113.4,84.1c0,0-9.9-20.1-10.7-20.1c-0.8,0-10.4,11-10.4,11s-6.6-5.5-7.2-5.3c-0.6,0.1-8.7,14.4-8.7,14.4
				H113.4z"/>
		</g>
		<g>
			
				<ellipse transform="matrix(0.9995 -3.127879e-02 3.127879e-02 0.9995 -1.7816 2.706)" class="st5" cx="85.6" cy="58.3" rx="2.2" ry="2.1"/>
		</g>
	</g>
	<g>
		<path class="st0" d="M140.2,52.2h-19.6c-0.7,0-1.3-0.6-1.3-1.3s0.6-1.3,1.3-1.3h19.6c0.7,0,1.3,0.6,1.3,1.3S140.9,52.2,140.2,52.2
			z"/>
	</g>
	<g>
		<path class="st6" d="M140.2,58.9h-19.6c-0.5,0-0.9-0.4-0.9-0.9s0.4-0.9,0.9-0.9h19.6c0.5,0,0.9,0.4,0.9,0.9S140.7,58.9,140.2,58.9
			z"/>
	</g>
	<g>
		<path class="st6" d="M140.2,65.2h-19.6c-0.5,0-0.9-0.4-0.9-0.9s0.4-0.9,0.9-0.9h19.6c0.5,0,0.9,0.4,0.9,0.9S140.7,65.2,140.2,65.2
			z"/>
	</g>
	<g>
		<path class="st6" d="M140.2,71.4h-19.6c-0.5,0-0.9-0.4-0.9-0.9s0.4-0.9,0.9-0.9h19.6c0.5,0,0.9,0.4,0.9,0.9S140.7,71.4,140.2,71.4
			z"/>
	</g>
	<g>
		<path class="st0" d="M140.2,97.8h-63c-0.7,0-1.3-0.6-1.3-1.3s0.6-1.3,1.3-1.3h63c0.7,0,1.3,0.6,1.3,1.3S140.9,97.8,140.2,97.8z"/>
	</g>
	<g>
		<path class="st6" d="M140.2,104.5h-63c-0.5,0-0.9-0.4-0.9-0.9s0.4-0.9,0.9-0.9h63c0.5,0,0.9,0.4,0.9,0.9S140.7,104.5,140.2,104.5z
			"/>
	</g>
	<g>
		<path class="st6" d="M140.2,111.6h-63c-0.5,0-0.9-0.4-0.9-0.9s0.4-0.9,0.9-0.9h63c0.5,0,0.9,0.4,0.9,0.9S140.7,111.6,140.2,111.6z
			"/>
	</g>
	<g>
		<path class="st6" d="M140.2,118.7h-63c-0.5,0-0.9-0.4-0.9-0.9s0.4-0.9,0.9-0.9h63c0.5,0,0.9,0.4,0.9,0.9S140.7,118.7,140.2,118.7z
			"/>
	</g>
	<g>
		<rect x="120.6" y="77.4" class="st7" width="19.6" height="6.6"/>
	</g>
</g>
</svg>
